<svg width="49" height="47" viewBox="0 0 49 47" fill="none" xmlns="http://www.w3.org/2000/svg">
<path d="M47.5 23.5C47.5 35.592 37.2621 45.5 24.5 45.5C11.7379 45.5 1.5 35.592 1.5 23.5C1.5 11.408 11.7379 1.5 24.5 1.5C37.2621 1.5 47.5 11.408 47.5 23.5Z" fill="white" stroke="black" stroke-width="3"/>
<path d="M42.5 37C38 41.5 37 43.5 24.5 47C12.5 42 10 42.5 6.5 38.5C6.5 33.2533 11.5213 28 24.5 28C37.4787 28 42.5 31.7533 42.5 37Z" fill="black"/>
<circle cx="25" cy="18" r="7" fill="black"/>
<circle cx="25" cy="18" r="5" fill="white"/>
</svg>
