<svg width="195" height="192" viewBox="0 0 195 192" fill="none" xmlns="http://www.w3.org/2000/svg">
<rect width="192" height="192" rx="50" fill="#125AD0"/>
<path fill-rule="evenodd" clip-rule="evenodd" d="M125.424 98.2778V98.8265V101.314H123.62V98.8265V98.2778V93.3024H125.424V98.2778ZM1.22685 92.6073H5.14818V102.497H1.22685V92.6073ZM12.0078 92.6073H15.8859V102.497H12.0078V92.6073ZM22.7996 92.6073H26.6777V102.497H22.7996V92.6073ZM1.22685 73.23H5.14818V83.071H1.22685V73.23ZM12.0078 73.23H15.8859V83.071H12.0078V73.23ZM22.7996 73.23H26.6777V83.071H22.7996V73.23ZM1.22685 53.7917H5.14818V63.6328H1.22685V53.7917ZM12.0078 53.7917H15.8859V63.6328H12.0078V53.7917ZM22.7996 53.7917H26.6777V63.6328H22.7996V53.7917ZM29.7564 49.9138H1V48.7309H29.7564V49.9138ZM118.337 37.9387L117.894 37.6948L118.078 36.2558L118.381 35.8046L119.31 34.9632C119.266 34.9632 119.223 34.9632 119.169 34.9632C118.823 34.9632 118.553 34.6583 118.553 34.3169C118.553 33.9144 118.823 33.6218 119.169 33.6218C119.482 33.6218 119.742 33.9144 119.742 34.3169C119.742 34.512 119.655 34.7071 119.526 34.8534L120.455 37.0972L120.628 37.2436L120.671 38.585L120.455 38.6825L120.228 43.1092H118.467L118.337 37.9387ZM119.439 35.7558V42.6092H119.882L120.098 38.3899L120.271 38.2435V37.5484L119.439 35.7558ZM103.063 41.0727L102.793 40.2313C102.706 39.8288 102.836 39.3289 102.836 39.0362L103.322 35.9509L103.851 34.9632C103.549 34.9632 103.279 34.6583 103.279 34.3169C103.279 33.9144 103.549 33.6218 103.851 33.6218C104.208 33.6218 104.467 33.9144 104.467 34.3169C104.467 34.5608 104.337 34.7559 104.164 34.8534L105.526 36.0485C105.439 36.4021 105.223 36.9021 105.266 37.2436V37.4875L105.083 43.1092H103.365C103.279 42.6092 103.192 41.5727 103.063 41.0727ZM104.208 35.6095V42.6092H104.694L104.867 37.4387C104.867 36.8412 104.91 36.9021 105.039 36.2558L104.121 35.4022L104.208 35.6095ZM88.706 36.0973V42.6092H89.3217L89.4081 39.7313C89.5053 38.1948 89.5486 38.7801 89.0192 37.0485L88.706 36.0973ZM88.9328 35.3534L89.3649 36.9021C89.9375 38.6825 89.8942 38.1338 89.8078 39.7313L89.7214 43.1092H88.0038L87.4313 37.9875C87.3881 37.5972 87.0748 36.6948 87.0748 36.6948L88.2199 34.9144C88.0038 34.7559 87.9174 34.5608 87.9174 34.3169C87.9174 33.9144 88.1766 33.6218 88.4899 33.6218C88.8356 33.6218 89.1057 33.9144 89.1057 34.3169C89.1057 34.6583 88.8356 34.9632 88.4899 34.9632L88.9328 35.3534ZM73.4743 34.9632L73.7336 35.1095C73.8308 35.1583 74.0469 35.2559 74.0901 35.3534L74.8787 37.8411C74.7923 37.9875 74.4034 39.085 74.4034 39.2801C74.3494 39.6337 74.4034 39.8288 74.4034 40.2313L74.3493 43.1092H72.1997C72.2429 42.3166 72.3293 40.7678 72.2429 39.9264L72.07 39.4752C71.9728 39.2313 71.8864 39.0362 71.7999 38.8289L72.3725 36.2558L73.2151 34.9632C72.9018 34.9144 72.6858 34.6583 72.6858 34.3169C72.6858 33.9144 72.945 33.6218 73.3015 33.6218C73.604 33.6218 73.8741 33.9144 73.8741 34.3169C73.8741 34.6095 73.6904 34.8534 73.4311 34.9632H73.4743ZM73.5176 35.6583V42.6092H73.9605V40.2313C74.0037 39.8288 73.9605 39.585 74.0037 39.2313C74.0037 39.1337 74.2629 38.1948 74.4034 37.7923L73.7336 35.6583L73.5608 35.5485L73.5176 35.6583ZM138.365 29V32.9755H54.5915V29H138.365ZM1.18364 118.704H5.19139V111.546H1.18364V108.96H28.7842V124.265H23.2857V123.679C22.227 122.484 20.8659 121.789 19.3643 121.789C17.8196 121.789 16.4585 122.484 15.443 123.679V124.265H12.4939V123.679C11.4353 122.484 10.0741 121.789 8.5834 121.789C7.08184 121.789 5.72072 122.484 4.66207 123.679V124.265H1.71297V123.679C1.48611 123.374 1.4429 123.179 1.18364 122.923V118.704ZM11.9646 111.546V118.704H15.9291V111.546H11.9646ZM22.7564 111.546V118.704H26.7209V111.546H22.7564ZM16.4585 124.265H19.0079V128.642H16.4585V124.265ZM5.67751 124.265H8.27012V128.642H5.67751V124.265ZM8.88587 124.265H11.4785V128.642H8.88587V124.265ZM19.6776 124.265H22.227V128.642H19.6776V124.265ZM38.204 49.9138H40.5806V59.2061H38.204V49.9138ZM42.5682 49.9626H44.988V59.2671H42.5682V49.9626ZM46.9649 50.0236H49.3522V59.3647H46.9649V50.0236ZM52.3878 49.426V105.131H51.9016V49.426H35.9679V105.131H35.4818V49.426H32.349V48.8773H55.5097V49.426H52.3878ZM36.6268 60.2061H51.2427V60.9987H36.6268V60.2061ZM36.6268 68.1082H51.2427V68.9009H36.6268V68.1082ZM49.968 87.644H48.2072V86.9489C47.0621 85.8027 45.5605 85.1076 43.9294 85.1076C42.255 85.1076 40.7642 85.8027 39.6191 86.9489V87.644H37.9015V88.7294H37.4154V86.7904H38.3012C39.6624 85.0588 41.6824 83.9613 43.9294 83.9613C46.1763 83.9613 48.2072 85.0588 49.5683 86.7904H50.4433V88.7294H49.968V87.644ZM40.062 87.388H47.7211V88.144H40.062V87.388ZM48.38 82.7662H39.3491V85.4002H38.8738V82.2174H40.3645V79.2907V78.998V73.7787H42.1685V78.998V79.2907V82.2174H42.8707V79.2907V78.998V73.7787H45.0312V78.998V79.2907V82.2174H45.7334V79.2907V78.998V73.7787H47.5374V78.998V79.2907V82.2174H48.8661V85.4002H48.38V82.7662ZM40.3645 69.8521H42.1685V72.6324H40.3645V69.8521ZM45.7334 69.8521H47.5374V72.6324H45.7334V69.8521ZM42.8707 69.8521H45.0312V72.6324H42.8707V69.8521ZM155.055 87.644H153.294V86.9489C152.149 85.8027 150.659 85.1076 149.027 85.1076C147.396 85.1076 145.851 85.8027 144.706 86.9489V87.644H142.989V88.7294H142.514V86.7904H143.389C144.75 85.0588 146.781 83.9613 149.027 83.9613C151.274 83.9613 153.294 85.0588 154.656 86.7904H155.541V88.7294H155.055V87.644ZM145.149 87.388H152.808V88.144H145.149V87.388ZM144.577 82.7662V85.4002H144.091V82.2174H145.463V79.2907V78.998V73.7787H147.267V78.998V79.2907V82.2174H147.969V79.2907V78.998V73.7787H150.129V78.998V79.2907V82.2174H150.831V79.2907V78.998V73.7787H152.636V78.998V79.2907V82.2174H154.083V85.4002H153.608V82.7662H144.577ZM145.463 69.8521H147.267V72.6324H145.463V69.8521ZM150.831 69.8521H152.636V72.6324H150.831V69.8521ZM147.969 69.8521H150.129V72.6324H147.969V69.8521ZM160.608 45.9871V46.792H137.534V45.9871H160.608ZM191.73 92.6073V102.497H187.809V92.6073H191.73ZM180.949 92.6073V102.497H177.071V92.6073H180.949ZM170.2 92.6073V102.497H166.279V92.6073H170.2ZM191.73 73.23V83.071H187.809V73.23H191.73ZM180.949 73.23V83.071H177.071V73.23H180.949ZM170.2 73.23V83.071H166.279V73.23H170.2ZM191.73 53.7917V63.6328H187.809V53.7917H191.73ZM180.949 53.7917V63.6328H177.071V53.7917H180.949ZM170.2 53.7917V63.6328H166.279V53.7917H170.2ZM163.244 49.9138V48.7309H192V49.9138H163.244ZM191.773 111.546H187.765V118.704H191.773V122.923C191.514 123.179 191.471 123.374 191.244 123.679V124.265H188.295V123.679C187.279 122.484 185.875 121.789 184.373 121.789C182.883 121.789 181.522 122.484 180.463 123.679V124.265H177.557V123.679C176.498 122.484 175.137 121.789 173.636 121.789C172.134 121.789 170.73 122.484 169.714 123.679V124.265H164.173V108.96H191.773V111.546ZM180.992 111.546H177.028V118.704H180.992V111.546ZM170.244 111.546H166.236V118.704H170.244V111.546ZM176.542 124.265V128.642H173.949V124.265H176.542ZM187.279 124.265V128.642H184.73V124.265H187.279ZM184.071 124.265V128.642H181.522V124.265H184.071ZM173.279 124.265V128.642H170.73V124.265H173.279ZM154.796 49.9138V59.2061H152.376V49.9138H154.796ZM150.389 49.9626V59.2671H147.969V49.9626H150.389ZM145.992 50.0236V59.3647H143.605V50.0236H145.992ZM160.608 48.8773V49.426H157.475V105.131H156.989V49.426H141.055V105.131H140.569V49.426H137.447V48.8773H160.608ZM156.33 60.2061V60.9987H141.714V60.2061H156.33ZM156.33 68.1082V68.9009H141.714V68.1082H156.33ZM60.6625 53.3527C60.9218 53.5966 61.1486 54.0966 61.1486 54.438C61.1486 54.8892 60.9218 55.2307 60.5761 55.3404H60.1332V55.8282H60.306V56.3282H60.1332V106.034H70.6981L71.3138 56.3282H71.141V55.8282H71.3138V55.3404H70.8817C70.5253 55.2307 70.2552 54.8892 70.2552 54.438C70.2552 53.999 70.6117 53.4015 71.0546 53.3527H76.0238C76.337 53.5966 76.5531 54.0966 76.5531 54.438C76.5531 54.8892 76.2938 55.2307 75.9373 55.3404H75.4944V55.8282H75.6781V56.3282H75.4944L76.121 106.034H86.1134L86.7291 56.3282H86.5023V55.8282H86.7291V55.3404H86.243C85.9297 55.2307 85.6704 54.8892 85.6704 54.438C85.6704 53.999 86.0269 53.4015 86.459 53.3527H91.3958C91.6983 53.5966 91.9251 54.0966 91.9251 54.438C91.9251 54.8892 91.6983 55.2307 91.3526 55.3404H90.9097V55.8282H91.0825V56.3282H90.9097L91.4822 106.034H95.7924H97.1644H101.475L102.047 56.3282H101.874V55.8282H102.047V55.3404H101.604C101.259 55.2307 101.032 54.8892 101.032 54.438C101.032 53.999 101.388 53.4015 101.788 53.3527H106.757C107.07 53.5966 107.286 54.0966 107.286 54.438C107.286 54.8892 107.027 55.2307 106.714 55.3404H106.228V55.8282H106.455V56.3282H106.228L106.843 106.034H116.836L117.462 56.3282H117.279V55.8282H117.462V55.3404H117.019C116.663 55.2307 116.404 54.8892 116.404 54.438C116.404 53.999 116.749 53.4015 117.192 53.3527H122.172C122.475 53.5966 122.702 54.0966 122.702 54.438C122.702 54.8892 122.432 55.2307 122.075 55.3404H121.643V55.8282H121.816V56.3282H121.643L122.259 106.034H132.824V56.3282H132.651V55.8282H132.824V55.3404H132.381C132.035 55.2307 131.808 54.8892 131.808 54.438C131.808 53.999 132.165 53.4015 132.554 53.3527H134.941V55.3404H133.526V55.8282H134.941V56.3282H133.526V106.034H143.518V90.3269H142.773V89.1806H143.389V89.5342H154.656V89.1806H155.282V90.3269H154.526V106.034H163.244H163.47H191.773V107.668H163.47H163.244H162.628V133.313H163.6H192V137.24H163.859V137.74H97.1644H95.7924H29.0974V137.24H1V133.313H29.0974H29.3999H30.3289V107.668H29.4863H1.22685V106.034H29.4863H38.4309V90.3269H37.6747V89.1806H38.3012V89.5342H49.5683V89.1806H50.184V90.3269H49.4387V106.034H59.431V56.3282H58.0159V55.8282H59.431V55.3404H58.0159V53.3527H60.6625ZM144.274 106.034H153.781V90.3269H152.636V93.1072H150.831V90.3269H150.129V93.1072H147.969V90.3269H147.267V93.1072H145.463V90.3269H144.231L144.274 106.034ZM39.133 106.034H48.6825V90.3269H47.5374V93.1072H45.7334V90.3269H45.0312V93.1072H42.8707V90.3269H42.1685V93.1072H40.3645V90.3269H39.133V106.034ZM77.2552 133.313H80.7337V123.679H80.2584V128.399H79.2861V123.679H78.7136V128.399H77.7414V123.679H77.2552V133.313ZM81.4466 133.313H84.9683V123.679H84.439V128.399H83.5099V123.679H82.8942V128.399H81.976V123.679H81.4466V133.313ZM92.6273 133.313H95.7924H96.1489V123.679H95.6196V128.399H94.6906V123.679H94.0748V128.399H93.1566V123.679H92.6273V133.313ZM96.8079 133.313H97.1644H100.33V123.679H99.8002V128.399H98.882V123.679H98.2662V128.399H97.3372V123.679H96.8079V133.313ZM107.989 133.313H111.51V123.679H110.981V128.399H110.063V123.679H109.447V128.399H108.518V123.679H107.989V133.313ZM112.223 133.313H115.745V123.679H115.215V128.399H114.243V123.679H113.671V128.399H112.742V123.679H112.223V133.313ZM160.737 133.313V107.668H97.1644H95.7924H32.2194V133.313H76.5531V122.874H80.7337H81.4466H85.6704V133.313H91.9251V122.874H96.1489H96.8079H101.032V133.313H107.286V122.874H111.51H112.223H116.404V133.313H160.737ZM74.7923 56.3282H72.07L71.4543 106.034H75.3648L74.7923 56.3282ZM74.7491 55.3404H72.07V55.8282H74.7491V55.3404ZM90.1643 56.3282H87.4313L86.8587 106.034H90.7801L90.1643 56.3282ZM90.1643 55.3404H87.4745L87.4313 55.8282H90.1643V55.3404ZM105.526 56.3282H102.793L102.177 106.034H106.098L105.526 56.3282ZM105.526 55.3404H102.793V55.8282H105.526V55.3404ZM120.887 56.3282H118.208L117.592 106.034H121.513L120.887 56.3282ZM120.887 55.3404H118.208V55.8282H120.887V55.3404ZM152.636 99.2168V99.4728V102.546H150.831V99.4728V99.2168V94.2535H152.636V99.2168ZM150.129 99.2168V99.4728V102.546H147.969V99.4728V99.2168V94.2535H150.129V99.2168ZM147.267 99.2168V99.4728V102.546H145.463V99.4728V99.2168V94.2535H147.267V99.2168ZM47.5374 94.2535V99.2168V99.4728V102.546H45.7334V99.4728V99.2168V94.2535H47.5374ZM45.0312 94.2535V99.2168V99.4728V102.546H42.8707V99.4728V99.2168V94.2535H45.0312ZM42.1685 94.2535V99.2168V99.4728V102.546H40.3645V99.4728V99.2168V94.2535H42.1685ZM78.8 119.996H76.7799V119.106C77.1688 118.009 77.8818 117.118 78.8 116.362V119.996ZM81.4898 119.996H79.459V115.875C80.0747 115.472 80.7877 115.131 81.4898 114.777V119.996ZM84.1689 119.996H82.1488V114.533C82.8078 114.277 83.4667 114.033 84.1689 113.838V119.996ZM86.8587 119.996H84.8386V113.68C85.4976 113.484 86.1566 113.338 86.8587 113.192V119.996ZM93.5023 119.996H91.4822V112.594C92.1844 112.497 92.8433 112.436 93.5023 112.436V119.996ZM96.1489 119.996H94.1721V112.387C94.9174 112.338 95.6196 112.338 96.1489 112.289V119.996ZM98.7848 119.996H96.7647V112.289C97.3804 112.289 98.0394 112.338 98.7848 112.387V119.996ZM101.475 119.996H99.4545V112.436C100.113 112.436 100.772 112.497 101.475 112.594V119.996ZM108.129 119.996H106.098V113.192C106.8 113.338 107.459 113.484 108.129 113.631V119.996ZM114.157 116.362C115.075 117.167 115.788 118.057 116.177 119.106V119.996H114.157V116.362ZM111.467 114.777C112.223 115.131 112.882 115.472 113.498 115.875V119.996H111.467V114.777ZM108.831 113.838C109.533 114.033 110.192 114.277 110.808 114.533V119.996H108.788V113.838H108.831ZM57.8863 108.814H93.3727L93.902 111.594C87.3016 111.948 76.0238 113.387 75.7645 120.74H117.192C116.933 113.387 105.655 111.948 99.0548 111.594L99.5841 108.814H135.071V126.057H129.432V124.569C128.859 123.972 128.114 123.569 127.228 123.569C126.396 123.569 125.651 123.972 125.078 124.569V126.057H117.322V122.179H106.411V126.057H101.917V122.179H91.0393V126.057H86.5454V122.179H75.6781V126.057H67.8786V124.569C67.3493 123.972 66.5607 123.569 65.7289 123.569C64.8431 123.569 64.0977 123.972 63.5252 124.569V126.057H57.8863V108.814ZM62.823 111.448V121.192H68.6348V111.448H62.823ZM124.322 111.448V121.192H130.134V111.448H124.322ZM63.6116 112.338H67.7922V120.35H63.6116V112.338ZM125.165 112.338H129.345V120.35H125.165V112.338ZM125.953 125.021H128.513V129.594H125.953V125.021ZM64.4434 125.021H67.0036V129.594H64.4434V125.021ZM46.0035 111.497V119.057H42.2982V111.497H46.0035ZM44.5451 124.069V128.301H47.0189V124.069H44.5451ZM41.2503 124.069V128.301H43.7133V124.069H41.2503ZM40.6346 123.228C41.596 122.277 42.8275 121.691 44.1562 121.691C45.4741 121.691 46.7056 122.277 47.6779 123.228V128.996H40.6346V123.228ZM146.953 111.497H150.659V119.057H146.953V111.497ZM148.412 124.069H145.938V128.301H148.412V124.069ZM151.706 124.069H149.243V128.301H151.706V124.069ZM152.322 123.228V128.996H145.322V123.228C146.251 122.277 147.483 121.691 148.801 121.691C150.173 121.691 151.361 122.277 152.322 123.228ZM72.1132 52.2064H74.7491V48.8285H72.07L72.1132 52.2064ZM71.1842 52.2064H71.3571V48.0236H75.4944L75.4512 52.2064H75.6781V52.8039H71.1842V52.2064ZM87.4745 52.2064H90.1211L90.1643 48.8285H87.4745V52.2064ZM86.5454 52.2064H86.7723L86.7291 48.0236H90.8665V52.2064H91.0393V52.8039H86.5454V52.2064ZM102.836 52.2064H105.482V48.8285H102.793L102.836 52.2064ZM101.917 52.2064H102.09V48.0236H106.228V52.2064H106.411V52.8039H101.917V52.2064ZM118.208 52.2064H120.887V48.8285H118.208V52.2064ZM117.279 52.2064H117.506V48.0236H121.6V52.2064H121.773V52.8039H117.279V52.2064ZM58.0159 52.2064H59.431V48.8285H58.0159V48.0236H60.1332V52.2064H60.306V52.8039H58.0159V52.2064ZM134.941 52.2064V52.8039H132.651V52.2064H132.824V48.0236H134.941V48.8285H133.526V52.2064H134.941ZM136.604 45.792V105.131H135.557V46.9383H132.121V48.0236H122.388V46.9383H116.706V48.0236H106.984V46.9383H101.345V48.0236H91.6551V46.9383H85.9729V48.0236H76.2506V46.9383H70.5685V48.0236H60.8354V46.9383H58.286H57.4002V105.131H56.3523V46.9383V45.792C58.1563 45.792 58.1563 45.792 58.1563 45.792V44.6457H29.7132V45.792H30.2425H31.7333V105.131H30.2425V46.9871H28.6545V45.1945H1V41.2678H30.7718V37.646H29.9293V33.6705H57.9727V37.646H57.1409V43.4628H59.2042V45.6945H71.7568V44.3531H75.0623V45.6945H87.1612V44.3531H90.4668V45.6945H102.49V44.3531H105.785V45.6945H117.894V44.3531H121.2V45.6945H133.753V43.4628H135.816V37.646H134.984V33.6705H163.071V37.646H162.185V41.2678H192V45.1945H164.302V46.9871H162.714V105.131H161.224V45.792H162.714H163.244V44.6457H134.8V45.792H136.604ZM161.483 43.4628V37.646V36.4509H162.012V35.3534V34.8534H136.032V35.3534V36.4509H136.518V37.646V43.4628H161.483ZM56.4387 43.4628V37.646V36.4509H56.9248V35.3534V34.8534H30.9447V35.3534V36.4509H31.474V37.646V43.4628H56.4387ZM140.796 38.4387H157.259V42.3653H140.796V38.4387ZM160.737 36.5973V37.3899H137.49V36.5973H160.737ZM32.2194 36.5973H55.5097V37.3899H32.2194V36.5973ZM35.6978 38.4387H52.1609V42.3653H35.6978V38.4387ZM93.1566 51.9015H95.5764V61.2061H93.1566V51.9015ZM97.3804 51.9015H99.8002V61.2061H97.3804V51.9015ZM92.8001 71.5837H95.9761C94.3449 71.8398 93.027 73.3275 92.8001 75.2177V71.5837ZM93.3295 75.7665C93.3295 73.7787 94.7446 72.1812 96.4514 72.1812C98.2122 72.1812 99.6273 73.7787 99.6273 75.7665C99.6273 77.7542 98.2122 79.3883 96.4514 79.3883C94.7446 79.3883 93.3295 77.7542 93.3295 75.7665ZM95.9761 79.937H92.8001V76.364C93.027 78.1932 94.3449 79.6931 95.9761 79.937ZM100.157 76.364V79.937H96.9807C98.6119 79.6931 99.9298 78.1932 100.157 76.364ZM96.9807 71.5837H100.157V75.2177C99.9298 73.3275 98.6119 71.8398 96.9807 71.5837ZM77.7414 51.9015H80.1611V61.2061H77.7414V51.9015ZM82.0624 51.9015H84.439V61.2061H82.0624V51.9015ZM77.3957 71.5837H80.604C78.9296 71.8398 77.6549 73.3275 77.3957 75.2177V71.5837ZM77.925 75.7665C77.925 73.7787 79.3293 72.1812 81.0902 72.1812C82.851 72.1812 84.3093 73.7787 84.3093 75.7665C84.3093 77.7542 82.851 79.3883 81.0902 79.3883C79.3293 79.3883 77.925 77.7542 77.925 75.7665ZM80.604 79.937H77.3957V76.364C77.6549 78.1932 78.9296 79.6931 80.604 79.937ZM84.7846 76.364V79.937H81.6195C83.2939 79.6931 84.5686 78.1932 84.7846 76.364ZM81.6195 71.5837H84.7846V75.2177C84.5686 73.3275 83.2939 71.8398 81.6195 71.5837ZM108.518 51.9015H110.894V61.2061H108.518V51.9015ZM112.796 51.9015H115.215V61.2061H112.796V51.9015ZM108.172 71.5837H111.337C109.706 71.8398 108.388 73.3275 108.172 75.2177V71.5837ZM108.647 75.7665C108.647 73.7787 110.106 72.1812 111.867 72.1812C113.627 72.1812 115.032 73.7787 115.032 75.7665C115.032 77.7542 113.627 79.3883 111.867 79.3883C110.106 79.3883 108.647 77.7542 108.647 75.7665ZM111.337 79.937H108.172V76.364C108.388 78.1932 109.706 79.6931 111.337 79.937ZM115.561 76.364V79.937H112.353C114.027 79.6931 115.302 78.1932 115.561 76.364ZM112.353 71.5837H115.561V75.2177C115.302 73.3275 114.027 71.8398 112.353 71.5837ZM123.89 51.9015H126.31V61.2061H123.89V51.9015ZM128.2 51.9015H130.577V61.2061H128.2V51.9015ZM123.533 71.5837H126.742C125.078 71.8398 123.749 73.3275 123.533 75.2177V71.5837ZM124.063 75.7665C124.063 73.7787 125.467 72.1812 127.228 72.1812C128.989 72.1812 130.447 73.7787 130.447 75.7665C130.447 77.7542 128.989 79.3883 127.228 79.3883C125.467 79.3883 124.063 77.7542 124.063 75.7665ZM126.742 79.937H123.533V76.364C123.749 78.1932 125.078 79.6931 126.742 79.937ZM130.933 76.364V79.937H127.757C129.388 79.6931 130.706 78.1932 130.933 76.364ZM127.757 71.5837H130.933V75.2177C130.706 73.3275 129.388 71.8398 127.757 71.5837ZM62.3801 51.9015H64.7999V61.2061H62.3801V51.9015ZM66.6471 51.9015H69.0669V61.2061H66.6471V51.9015ZM66.2042 71.5837H69.4234V75.2177C69.2073 73.3275 67.8786 71.8398 66.2042 71.5837ZM69.4234 76.364V79.937H66.2042C67.8786 79.6931 69.2073 78.1932 69.4234 76.364ZM65.1996 79.937H62.0236V76.364C62.2505 78.1932 63.5684 79.6931 65.1996 79.937ZM62.5098 75.7665C62.5098 73.7787 63.9681 72.1812 65.7289 72.1812C67.4897 72.1812 68.8941 73.7787 68.8941 75.7665C68.8941 77.7542 67.4897 79.3883 65.7289 79.3883C63.9681 79.3883 62.5098 77.7542 62.5098 75.7665ZM62.0236 71.5837H65.1996C63.5684 71.8398 62.2505 73.3275 62.0236 75.2177V71.5837ZM32.349 45.9871H55.4233V46.792H32.349V45.9871ZM122.345 80.937H132.165V81.7296H122.345V80.937ZM106.93 80.937H116.749V81.7296H106.93V80.937ZM91.6119 80.937H101.388V81.7296H91.6119V80.937ZM76.2074 80.937H86.0269V81.7296H76.2074V80.937ZM60.8354 80.937H70.6117V81.7296H60.8354V80.937ZM122.345 69.9008H132.165V70.6935H122.345V69.9008ZM106.93 69.9008H116.749V70.6935H106.93V69.9008ZM91.6119 69.9008H101.388V70.6935H91.6119V69.9008ZM76.2074 69.9008H86.0269V70.6935H76.2074V69.9008ZM60.8354 69.9008H70.6117V70.6935H60.8354V69.9008ZM122.345 62.0963H132.165V62.8889H122.345V62.0963ZM106.93 62.0963H116.749V62.8889H106.93V62.0963ZM91.6119 62.0963H101.388V62.8889H91.6119V62.0963ZM76.2074 62.0963H86.0269V62.8889H76.2074V62.0963ZM60.8354 62.0963H70.6117V62.8889H60.8354V62.0963ZM62.4233 102.704H69.0237V102.204H69.9959V104.095H69.0237V103.448H62.4233V104.095H61.4511V102.204H62.4233V102.704ZM77.8278 102.704H84.3957V102.204H85.3572V104.095H84.3957V103.448H77.8278V104.095H76.8232V102.204H77.8278V102.704ZM93.1998 102.704H99.757V102.204H100.729V104.095H99.757V103.448H93.1998V104.095H92.2276V102.204H93.1998V102.704ZM108.561 102.704H115.129V102.204H116.134V104.095H115.129V103.448H108.561V104.095H107.6V102.204H108.561V102.704ZM123.976 102.704H130.533V102.204H131.506V104.095H130.533V103.448H123.976V104.095H122.961V102.204H123.976V102.704ZM69.2938 92.1683H67.4897V87.8879C68.5484 88.583 69.2938 89.8757 69.2938 91.4244V92.1683ZM66.7768 87.5465V92.1683H64.6271V87.5465C64.9727 87.388 65.3292 87.3392 65.6857 87.3392C66.0746 87.3392 66.4311 87.388 66.7768 87.5465ZM63.9249 87.8879V92.1683H62.1101V91.4244C62.1101 89.8757 62.823 88.583 63.9249 87.8879ZM69.2938 98.2778V98.8265V101.314H67.4897V98.8265V98.2778V93.3024H69.2938V98.2778ZM66.7768 98.2778V98.8265V101.314H64.6271V98.8265V98.2778V93.3024H66.7768V98.2778ZM63.9249 98.2778V98.8265V101.314H62.1101V98.8265V98.2778V93.3024H63.9249V98.2778ZM84.6982 92.1683H82.8942V87.8879C83.9528 88.583 84.6982 89.8757 84.6982 91.4244V92.1683ZM82.192 87.5465V92.1683H79.9883V87.5465C80.3448 87.388 80.6905 87.3392 81.0902 87.3392C81.4899 87.3392 81.8355 87.388 82.192 87.5465ZM79.2861 87.8879V92.1683H77.4821V91.4244C77.4821 89.8757 78.2275 88.583 79.2861 87.8879ZM84.6982 98.2778V98.8265V101.314H82.8942V98.8265V98.2778V93.3024H84.6982V98.2778ZM82.192 98.2778V98.8265V101.314H79.9883V98.8265V98.2778V93.3024H82.192V98.2778ZM79.2861 98.2778V98.8265V101.314H77.4821V98.8265V98.2778V93.3024H79.2861V98.2778ZM100.027 92.1683H98.2122V87.8879C99.3141 88.583 100.027 89.8757 100.027 91.4244V92.1683ZM97.51 87.5465V92.1683H95.4035V87.5465C95.7492 87.388 96.1057 87.3392 96.4514 87.3392C96.8079 87.3392 97.2076 87.388 97.51 87.5465ZM94.6906 87.8879V92.1683H92.8865V91.4244C92.8865 89.8757 93.6427 88.583 94.6906 87.8879ZM100.027 98.2778V98.8265V101.314H98.2122V98.8265V98.2778V93.3024H100.027V98.2778ZM97.51 98.2778V98.8265V101.314H95.4035V98.8265V98.2778V93.3024H97.51V98.2778ZM94.6906 98.2778V98.8265V101.314H92.8865V98.8265V98.2778V93.3024H94.6906V98.2778ZM115.431 92.1683H113.627V87.8879C114.686 88.583 115.431 89.8757 115.431 91.4244V92.1683ZM112.925 87.5465V92.1683H110.765V87.5465C111.078 87.388 111.467 87.3392 111.823 87.3392C112.223 87.3392 112.569 87.388 112.925 87.5465ZM110.063 87.8879V92.1683H108.259V91.4244C108.259 89.8757 108.961 88.583 110.063 87.8879ZM115.431 98.2778V98.8265V101.314H113.627V98.8265V98.2778V93.3024H115.431V98.2778ZM112.925 98.2778V98.8265V101.314H110.765V98.8265V98.2778V93.3024H112.925V98.2778ZM110.063 98.2778V98.8265V101.314H108.259V98.8265V98.2778V93.3024H110.063V98.2778ZM130.793 92.1683H128.989V87.8879C130.091 88.583 130.793 89.8757 130.793 91.4244V92.1683ZM128.33 87.5465V92.1683H126.126V87.5465C126.483 87.388 126.839 87.3392 127.228 87.3392C127.628 87.3392 127.984 87.388 128.33 87.5465ZM125.424 87.8879V92.1683H123.62V91.4244C123.62 89.8757 124.365 88.583 125.424 87.8879ZM130.793 98.2778V98.8265V101.314H128.989V98.8265V98.2778V93.3024H130.793V98.2778ZM128.33 98.2778V98.8265V101.314H126.126V98.8265V98.2778V93.3024H128.33V98.2778ZM59.5175 158.214C59.5175 156.129 59.161 154.483 58.502 153.3C57.7998 152.105 56.9248 151.312 55.8662 150.812C54.7643 150.312 53.576 150.117 52.2581 150.117C50.9726 150.117 49.7844 150.312 48.6825 150.812C47.5914 151.312 46.7056 152.105 46.0467 153.3C45.3877 154.483 45.0312 156.129 44.988 158.214V170.885C45.0312 172.982 45.3877 174.616 46.0467 175.811C46.7056 177.006 47.5914 177.848 48.6825 178.299C49.7844 178.787 50.9726 179.043 52.2581 178.994C53.576 179.043 54.7643 178.787 55.8662 178.299C56.9248 177.848 57.7998 177.006 58.502 175.811C59.161 174.616 59.5175 172.982 59.5175 170.885V158.214ZM50.7566 156.775C50.7134 156.178 50.843 155.678 51.059 155.239C51.2859 154.788 51.6856 154.593 52.2581 154.593C52.8739 154.593 53.2628 154.788 53.4896 155.239C53.7057 155.678 53.7921 156.178 53.7921 156.775V172.385C53.7921 172.982 53.7057 173.47 53.4896 173.872C53.2628 174.324 52.8739 174.567 52.2581 174.567C51.6856 174.567 51.2859 174.324 51.059 173.872C50.843 173.47 50.7134 172.982 50.7566 172.385V156.775ZM66.874 160.397L69.9959 178.445H74.5762L77.655 160.397L77.6982 178.445H82.6781V156.129H74.8787L72.6426 170.946L70.3524 156.129H62.4665V178.445H66.874V160.397ZM91.439 178.445V154.885H97.5533V150.666H85.7136V178.445H91.439ZM121.729 178.445V154.885H124.765V178.445H130.533V150.666H116.004V178.445H121.729ZM142.243 167.665V172.385C142.243 172.982 142.157 173.47 141.941 173.872C141.714 174.324 141.271 174.567 140.655 174.567C140.083 174.567 139.694 174.324 139.467 173.872C139.251 173.47 139.165 172.982 139.165 172.385V156.775C139.165 156.178 139.251 155.678 139.467 155.239C139.694 154.788 140.083 154.593 140.655 154.593C141.271 154.593 141.714 154.788 141.941 155.239C142.157 155.678 142.243 156.178 142.243 156.775V160.605H147.969V157.519C147.969 155.532 147.612 154.044 146.997 152.946C146.381 151.849 145.506 151.105 144.404 150.715C143.345 150.312 142.071 150.117 140.655 150.117C139.381 150.117 138.192 150.312 137.091 150.812C136.032 151.312 135.157 152.105 134.455 153.3C133.796 154.483 133.483 156.129 133.439 158.214V170.885C133.483 172.982 133.796 174.616 134.455 175.811C135.157 177.006 136.032 177.848 137.091 178.299C138.192 178.787 139.381 179.043 140.655 178.994C143.086 178.994 144.933 178.397 146.122 177.104C147.353 175.86 147.969 173.921 147.969 171.336V167.665H142.243ZM102.576 178.445H108.215L113.8 150.666H108.259L106.498 164.275L104.024 150.666H98.5255L103.592 171.433L102.576 178.445Z" fill="#FEFEFE"/>
</svg>
