<?xml version="1.0" encoding="UTF-8" standalone="no"?>
<svg
        xmlns:dc="http://purl.org/dc/elements/1.1/"
        xmlns:cc="http://creativecommons.org/ns#"
        xmlns:rdf="http://www.w3.org/1999/02/22-rdf-syntax-ns#"
        xmlns="http://www.w3.org/2000/svg"
        xmlns:sodipodi="http://sodipodi.sourceforge.net/DTD/sodipodi-0.dtd"
        xmlns:inkscape="http://www.inkscape.org/namespaces/inkscape"
        width="83.999496"
        height="83.754997"
        version="1.1"
        id="svg4493"
        sodipodi:docname="RecaptchaLogo.svg"
        inkscape:version="0.92.1 r15371">
  <metadata
     id="metadata4499">
    <rdf:RDF>
      <cc:Work
         rdf:about="">
        <dc:format>image/svg+xml</dc:format>
        <dc:type
           rdf:resource="http://purl.org/dc/dcmitype/StillImage" />
      </cc:Work>
    </rdf:RDF>
  </metadata>
  <defs
     id="defs4497">
    <clipPath
       clipPathUnits="userSpaceOnUse"
       id="clipPath4505">
      <rect
         style="opacity:1;fill:#ececec;fill-opacity:0.50354614;stroke:none;stroke-width:11.33858299;stroke-miterlimit:4;stroke-dasharray:none;stroke-opacity:1"
         id="rect4507"
         width="85.058823"
         height="85.058823"
         x="20.470589"
         y="19.764706" />
    </clipPath>
    <clipPath
       clipPathUnits="userSpaceOnUse"
       id="clipPath4509">
      <rect
         style="opacity:1;fill:#ececec;fill-opacity:0.50354614;stroke:none;stroke-width:11.33858299;stroke-miterlimit:4;stroke-dasharray:none;stroke-opacity:1"
         id="rect4511"
         width="85.058823"
         height="85.058823"
         x="20.470589"
         y="19.764706" />
    </clipPath>
    <clipPath
       clipPathUnits="userSpaceOnUse"
       id="clipPath4513">
      <rect
         style="opacity:1;fill:#ececec;fill-opacity:0.50354614;stroke:none;stroke-width:11.33858299;stroke-miterlimit:4;stroke-dasharray:none;stroke-opacity:1"
         id="rect4515"
         width="85.058823"
         height="85.058823"
         x="20.470589"
         y="19.764706" />
    </clipPath>
  </defs>
  <sodipodi:namedview
     pagecolor="#ffffff"
     bordercolor="#666666"
     borderopacity="1"
     objecttolerance="10"
     gridtolerance="10"
     guidetolerance="10"
     inkscape:pageopacity="0"
     inkscape:pageshadow="2"
     inkscape:window-width="1920"
     inkscape:window-height="1017"
     id="namedview4495"
     showgrid="false"
     inkscape:zoom="5.6666667"
     inkscape:cx="53.823029"
     inkscape:cy="43.293617"
     inkscape:window-x="-8"
     inkscape:window-y="32"
     inkscape:window-maximized="1"
     inkscape:current-layer="svg4493" />
  <path
     d="m 105.17647,62.239471 c -0.002,-0.60232 -0.0159,-1.2014 -0.0429,-1.7976 v -33.991 l -9.397099,9.3971 c -7.691,-9.4141 -19.391,-15.427 -32.496,-15.427 -13.638,0 -25.754,6.5097 -33.413,16.591 l 15.403,15.565 c 1.5095,-2.7917 3.6539,-5.1895 6.2395,-7.0005 2.6891,-2.0985 6.4993,-3.8143 11.77,-3.8143 0.63674,0 1.1282,0.0744 1.4893,0.21458 6.5304,0.51543 12.191,4.1194 15.524,9.3503 l -10.903,10.903 c 13.81,-0.0542 29.411,-0.086 35.824999,0.007"
     style="fill:#1c3aa9"
     id="path4485"
     inkscape:connector-curvature="0"
     clip-path="url(#clipPath4513)"
     transform="translate(-21.176971,-20.420971)" />
  <path
     d="m 62.995471,20.422471 c -0.60232,0.002 -1.2014,0.0159 -1.7976,0.0429 h -33.991 l 9.3971,9.3971 c -9.4141,7.691 -15.427,19.391 -15.427,32.496 0,13.638 6.5098,25.754 16.591,33.413 l 15.565,-15.403 c -2.7917,-1.5095 -5.1895,-3.6539 -7.0005,-6.2395 -2.0984,-2.6891 -3.8143,-6.4993 -3.8143,-11.77 0,-0.63674 0.0744,-1.1282 0.21458,-1.4893 0.51543,-6.5304 4.1194,-12.191 9.3503,-15.524 l 10.903,10.903 c -0.0542,-13.81 -0.0861,-29.411 0.007,-35.825"
     style="fill:#4285f4"
     id="path4487"
     inkscape:connector-curvature="0"
     clip-path="url(#clipPath4509)"
     transform="translate(-21.176971,-20.420971)" />
  <path
     d="m 21.178471,62.357471 c 0.002,0.60232 0.0159,1.2014 0.0429,1.7976 v 33.991 l 9.3971,-9.3971 c 7.691,9.4141 19.391,15.426999 32.496,15.426999 13.638,0 25.754,-6.509699 33.413,-16.590999 l -15.403,-15.565 c -1.5095,2.7917 -3.6539,5.1895 -6.2395,7.0005 -2.6891,2.0985 -6.4993,3.8143 -11.77,3.8143 -0.63674,0 -1.1282,-0.0744 -1.4893,-0.21458 -6.5304,-0.51543 -12.191,-4.1194 -15.524,-9.3503 l 10.903,-10.903 c -13.81,0.0542 -29.411,0.086 -35.825,-0.007"
     style="fill:#ababab"
     id="path4489"
     inkscape:connector-curvature="0"
     clip-path="url(#clipPath4505)"
     transform="translate(-21.176971,-20.420971)" />
</svg>
